HIERARCHY
ROOT Hips
{
    OFFSET 0.000000 0.000000 0.000000
    CHANNELS 6 Xposition Yposition Zposition Zrotation Xrotation Yrotation
    JOINT Spine
    {
        OFFSET -0.000000 14.517291 0.000000
        CHANNELS 3 Zrotation Xrotation Yrotation
        JOINT Spine1
        {
            OFFSET -0.000000 37.558300 0.000000
            CHANNELS 3 Zrotation Xrotation Yrotation
            JOINT Neck
            {
                OFFSET -0.000000 37.404057 3.400369
                CHANNELS 3 Zrotation Xrotation Yrotation
                JOINT Head
                {
                    OFFSET -0.000000 24.785618 -3.540803
                    CHANNELS 3 Zrotation Xrotation Yrotation
                    End Site
                    {
                        OFFSET -0.000000 35.408028 0.000000
                    }
                }
            }
            JOINT LeftShoulder
            {
                OFFSET 6.992933 33.973492 -0.192664
                CHANNELS 3 Zrotation Xrotation Yrotation
                JOINT LeftArm
                {
                    OFFSET 21.527611 0.000000 0.000000
                    CHANNELS 3 Zrotation Xrotation Yrotation
                    JOINT LeftForeArm
                    {
                        OFFSET 56.353916 0.000000 0.000000
                        CHANNELS 3 Zrotation Xrotation Yrotation
                        JOINT LeftHand
                        {
                            OFFSET 47.774071 0.000000 0.000000
                            CHANNELS 3 Zrotation Xrotation Yrotation
                            End Site
                            {
                                OFFSET 26.556021 0.000000 0.000000
                            }
                        }
                    }
                }
            }
            JOINT RightShoulder
            {
                OFFSET -7.065357 33.973492 -0.192664
                CHANNELS 3 Zrotation Xrotation Yrotation
                JOINT RightArm
                {
                    OFFSET -21.527611 0.000000 0.000000
                    CHANNELS 3 Zrotation Xrotation Yrotation
                    JOINT RightForeArm
                    {
                        OFFSET -56.353916 0.000000 0.000000
                        CHANNELS 3 Zrotation Xrotation Yrotation
                        JOINT RightHand
                        {
                            OFFSET -47.774071 0.000000 0.000000
                            CHANNELS 3 Zrotation Xrotation Yrotation
                            End Site
                            {
                                OFFSET -26.556021 0.000000 0.000000
                            }
                        }
                    }
                }
            }
        }
    }
    JOINT LeftUpLeg
    {
        OFFSET 17.704014 0.000000 0.000000
        CHANNELS 3 Zrotation Xrotation Yrotation
        JOINT LeftLeg
        {
            OFFSET -0.000000 -81.181816 0.000000
            CHANNELS 3 Zrotation Xrotation Yrotation
            JOINT LeftFoot
            {
                OFFSET -0.000000 -62.821102 0.000000
                CHANNELS 3 Zrotation Xrotation Yrotation
                JOINT LeftToeBase
                {
                    OFFSET -0.000000 -11.507608 26.556021
                    CHANNELS 3 Zrotation Xrotation Yrotation
                    End Site
                    {
                        OFFSET -0.000000 0.000000 7.081605
                    }
                }
            }
        }
    }
    JOINT RightUpLeg
    {
        OFFSET -17.704014 0.000000 0.000000
        CHANNELS 3 Zrotation Xrotation Yrotation
        JOINT RightLeg
        {
            OFFSET -0.000000 -81.181816 0.000000
            CHANNELS 3 Zrotation Xrotation Yrotation
            JOINT RightFoot
            {
                OFFSET -0.000000 -62.821102 0.000000
                CHANNELS 3 Zrotation Xrotation Yrotation
                JOINT RightToeBase
                {
                    OFFSET -0.000000 -11.507608 26.556021
                    CHANNELS 3 Zrotation Xrotation Yrotation
                    End Site
                    {
                        OFFSET -0.000000 0.000000 7.081605
                    }
                }
            }
        }
    }
}
MOTION
Frames:    5
Frame Time:    0.008333
-1.398737    156.875305    -23.214058    -1.558009    -2.923846    -37.884693    3.296120    -0.359296    1.382024    -0.748833    1.790356    0.467774    14.898921    4.189180    15.014877    -8.475707    2.324094    12.948833    -1.086371    9.538422    -10.139436    -41.539280    11.049483    -35.512218    45.810101    -47.561256    -38.146599    -19.388306    -31.167009    -25.970318    -2.004834    8.968132    -4.076993    39.576511    14.562374    69.880348    -6.618071    -30.529119    63.683628    23.308903    -22.613655    22.687923    17.545534    -15.426267    6.435659    -13.440957    22.559685    -0.540770    -5.475582    -2.966165    32.395424    0.000000    0.000000    0.000000    -11.965596    1.037703    -5.875936    5.883249    28.191921    0.238732    3.834962    -22.109484    -13.003874    0.000000    0.000000    0.000000    
-1.387166    156.869812    -23.228401    -1.561303    -2.926604    -37.892220    3.314584    -0.350551    1.379355    -0.768377    1.781396    0.467314    14.902693    4.172550    15.012237    -8.465808    2.356210    12.946932    -1.090443    9.537551    -10.140110    -41.522072    11.067558    -35.523991    45.822407    -47.557915    -38.124718    -19.402264    -31.160374    -25.997726    -2.032904    8.988261    -4.026765    39.490585    14.621895    70.021027    -6.114902    -30.454208    64.294281    23.445650    -22.748638    22.718334    17.551723    -15.430644    6.429706    -13.456860    22.565588    -0.520694    -5.460784    -2.963288    32.394604    0.000000    0.000000    0.000000    -11.964066    1.019851    -5.901939    5.863221    28.221884    0.234240    3.833519    -22.113825    -12.965030    0.000000    0.000000    0.000000    
-1.376308    156.860657    -23.247501    -1.561578    -2.927681    -37.903591    3.330925    -0.336762    1.386741    -0.790331    1.766975    0.470150    14.909069    4.176260    15.001634    -8.464803    2.346582    12.935048    -1.087613    9.540231    -10.146930    -41.514671    11.063559    -35.540493    45.808575    -47.549343    -38.137444    -19.427908    -31.143234    -26.002501    -2.057256    8.994339    -3.997820    39.427128    14.662121    70.180092    -5.775983    -30.113388    64.739853    23.228643    -22.652218    22.426992    17.557774    -15.437815    6.449542    -13.458490    22.574839    -0.513473    -5.466056    -2.964204    32.395977    0.000000    0.000000    0.000000    -11.972292    0.993921    -5.879610    5.885635    28.260929    0.234523    3.811822    -22.127151    -12.977607    0.000000    0.000000    0.000000    
-1.368946    156.851501    -23.261715    -1.567666    -2.938331    -37.917740    3.326268    -0.321712    1.403732    -0.781295    1.769636    0.475789    14.922716    4.143975    14.993095    -8.473877    2.374146    12.921153    -1.083526    9.532126    -10.168575    -41.533421    11.056310    -35.559219    45.787155    -47.537075    -38.161110    -19.406385    -31.130337    -25.999613    -2.085914    8.994897    -3.973548    39.360775    14.696838    70.319283    -5.390320    -29.818914    65.227638    23.118126    -22.569588    22.358704    17.559374    -15.428490    6.476655    -13.450227    22.582405    -0.504949    -5.461241    -2.967331    32.364330    0.000000    0.000000    0.000000    -11.981475    0.983608    -5.857025    5.903439    28.289631    0.228998    3.802513    -22.145750    -12.978103    0.000000    0.000000    0.000000    
-1.361727    156.842072    -23.277651    -1.569653    -2.942821    -37.936451    3.288782    -0.325410    1.465040    -0.726989    1.791357    0.495445    14.919011    4.100563    14.954595    -8.457577    2.393067    12.878792    -1.060905    9.543967    -10.236768    -41.562603    11.048638    -35.618969    45.779228    -47.527897    -38.173672    -19.366898    -31.127443    -25.979933    -2.109810    8.979797    -4.022536    39.273254    14.755898    70.481041    -5.037159    -29.566267    65.688049    23.005945    -22.522205    22.271551    17.565420    -15.424383    6.500295    -13.452250    22.584631    -0.511074    -5.449897    -2.964994    32.374870    0.000000    0.000000    0.000000    -11.990220    0.963113    -5.845818    5.914479    28.323298    0.237596    3.813264    -22.170782    -12.976834    0.000000    0.000000    0.000000    
